<svg xmlns="http://www.w3.org/2000/svg" width="820" height="648"
     font-family="ui-monospace, 'Cascadia Code', 'Courier New', monospace" font-size="12">
<rect width="820" height="648" fill="#ffffff"/>
<text x="410" y="18" text-anchor="middle" font-size="13" font-weight="bold" fill="#212121">SmarterCSV improvements 1.15.2, 1.16.0 vs 1.14.4 — Ruby (not accelerated)</text>
<text x="410" y="32" text-anchor="middle" font-size="10" fill="#9e9e9e">Speedup ratio = baseline version time ÷ newer version time  (higher = newer version is faster)</text>
<text x="410" y="48" text-anchor="middle" font-size="11" fill="#616161">Ruby 3.4.7  [log scale, best of 30]</text>
<line x1="220" y1="68" x2="220" y2="580" stroke="#e0e0e0" stroke-width="1"/>
<text x="220" y="64" text-anchor="middle" font-size="11" fill="#757575">1×</text>
<line x1="323" y1="68" x2="323" y2="580" stroke="#e0e0e0" stroke-width="1"/>
<text x="323" y="64" text-anchor="middle" font-size="11" fill="#757575">2×</text>
<line x1="459" y1="68" x2="459" y2="580" stroke="#e0e0e0" stroke-width="1"/>
<text x="459" y="64" text-anchor="middle" font-size="11" fill="#757575">5×</text>
<line x1="561" y1="68" x2="561" y2="580" stroke="#e0e0e0" stroke-width="1"/>
<text x="561" y="64" text-anchor="middle" font-size="11" fill="#757575">10×</text>
<line x1="664" y1="68" x2="664" y2="580" stroke="#e0e0e0" stroke-width="1"/>
<text x="664" y="64" text-anchor="middle" font-size="11" fill="#757575">20×</text>
<line x1="800" y1="68" x2="800" y2="580" stroke="#e0e0e0" stroke-width="1"/>
<text x="800" y="64" text-anchor="middle" font-size="11" fill="#757575">50×</text>
<line x1="220" y1="68" x2="220" y2="580" stroke="#9e9e9e" stroke-width="1.5"/>
<line x1="220" y1="68" x2="800" y2="68" stroke="#bdbdbd" stroke-width="1"/>
<rect x="0" y="86" width="820" height="26" fill="#f5f5f5"/>
<text x="212" y="103" text-anchor="end" font-size="11" fill="#424242">PEOPLE_IMPORT_C</text>
<rect x="563" y="94" width="10" height="10" fill="#1565C0"/>
<text x="539" y="103" font-size="10" fill="#1565C0">10×</text>
<rect x="660" y="94" width="10" height="10" fill="#BF360C"/>
<text x="673" y="103" font-size="10" fill="#BF360C">20×</text>
<rect x="0" y="112" width="820" height="26" fill="#ffffff"/>
<text x="212" y="129" text-anchor="end" font-size="11" fill="#424242">PEOPLE_IMPORT_NC</text>
<rect x="515" y="120" width="10" height="10" fill="#1565C0"/>
<text x="484" y="129" font-size="10" fill="#1565C0">7.6×</text>
<rect x="572" y="120" width="10" height="10" fill="#BF360C"/>
<text x="585" y="129" font-size="10" fill="#BF360C">11×</text>
<rect x="0" y="138" width="820" height="26" fill="#f5f5f5"/>
<text x="212" y="155" text-anchor="end" font-size="11" fill="#424242">PEOPLE_IMPORT_NB</text>
<rect x="535" y="146" width="10" height="10" fill="#1565C0"/>
<text x="504" y="155" font-size="10" fill="#1565C0">8.6×</text>
<rect x="554" y="146" width="10" height="10" fill="#BF360C"/>
<text x="567" y="158" font-size="10" fill="#BF360C">9.8×</text>
<rect x="0" y="164" width="820" height="26" fill="#ffffff"/>
<text x="212" y="181" text-anchor="end" font-size="11" fill="#424242">whitespace_heavy_20k</text>
<rect x="546" y="172" width="10" height="10" fill="#1565C0"/>
<text x="515" y="181" font-size="10" fill="#1565C0">9.3×</text>
<rect x="550" y="172" width="10" height="10" fill="#BF360C"/>
<text x="563" y="184" font-size="10" fill="#BF360C">9.6×</text>
<rect x="0" y="190" width="820" height="26" fill="#f5f5f5"/>
<text x="212" y="207" text-anchor="end" font-size="11" fill="#424242">PEOPLE_IMPORT_B</text>
<rect x="535" y="198" width="10" height="10" fill="#1565C0"/>
<text x="504" y="207" font-size="10" fill="#1565C0">8.7×</text>
<rect x="541" y="198" width="10" height="10" fill="#BF360C"/>
<text x="554" y="210" font-size="10" fill="#BF360C">9.0×</text>
<rect x="0" y="216" width="820" height="26" fill="#ffffff"/>
<text x="212" y="233" text-anchor="end" font-size="11" fill="#424242">tab_separated_20k</text>
<rect x="521" y="224" width="10" height="10" fill="#1565C0"/>
<text x="490" y="233" font-size="10" fill="#1565C0">7.9×</text>
<rect x="528" y="224" width="10" height="10" fill="#BF360C"/>
<text x="541" y="236" font-size="10" fill="#BF360C">8.2×</text>
<rect x="0" y="242" width="820" height="26" fill="#f5f5f5"/>
<text x="212" y="259" text-anchor="end" font-size="11" fill="#424242">multi_char_separator_20k</text>
<rect x="476" y="250" width="10" height="10" fill="#1565C0"/>
<text x="445" y="259" font-size="10" fill="#1565C0">5.8×</text>
<rect x="519" y="250" width="10" height="10" fill="#BF360C"/>
<text x="532" y="262" font-size="10" fill="#BF360C">7.8×</text>
<rect x="0" y="268" width="820" height="26" fill="#ffffff"/>
<text x="212" y="285" text-anchor="end" font-size="11" fill="#424242">wide_500_cols_20k</text>
<rect x="486" y="276" width="10" height="10" fill="#1565C0"/>
<text x="455" y="285" font-size="10" fill="#1565C0">6.2×</text>
<rect x="487" y="276" width="10" height="10" fill="#BF360C"/>
<text x="500" y="288" font-size="10" fill="#BF360C">6.3×</text>
<rect x="0" y="294" width="820" height="26" fill="#f5f5f5"/>
<text x="212" y="311" text-anchor="end" font-size="11" fill="#424242">utf8_multibyte_20k</text>
<rect x="473" y="302" width="10" height="10" fill="#1565C0"/>
<text x="442" y="311" font-size="10" fill="#1565C0">5.7×</text>
<rect x="481" y="302" width="10" height="10" fill="#BF360C"/>
<text x="494" y="314" font-size="10" fill="#BF360C">6.0×</text>
<rect x="0" y="320" width="820" height="26" fill="#ffffff"/>
<text x="212" y="337" text-anchor="end" font-size="11" fill="#424242">many_empty_fields_20k</text>
<rect x="395" y="328" width="10" height="10" fill="#1565C0"/>
<text x="364" y="337" font-size="10" fill="#1565C0">3.4×</text>
<rect x="461" y="328" width="10" height="10" fill="#BF360C"/>
<text x="474" y="337" font-size="10" fill="#BF360C">5.3×</text>
<rect x="0" y="346" width="820" height="26" fill="#f5f5f5"/>
<text x="212" y="363" text-anchor="end" font-size="11" fill="#424242">sensor_data_50krows_50cols</text>
<rect x="453" y="354" width="10" height="10" fill="#1565C0"/>
<text x="422" y="363" font-size="10" fill="#1565C0">5.0×</text>
<rect x="457" y="354" width="10" height="10" fill="#BF360C"/>
<text x="470" y="366" font-size="10" fill="#BF360C">5.1×</text>
<rect x="0" y="372" width="820" height="26" fill="#ffffff"/>
<text x="212" y="389" text-anchor="end" font-size="11" fill="#424242">sample_10M</text>
<rect x="435" y="380" width="10" height="10" fill="#1565C0"/>
<text x="404" y="389" font-size="10" fill="#1565C0">4.4×</text>
<rect x="447" y="380" width="10" height="10" fill="#BF360C"/>
<text x="460" y="392" font-size="10" fill="#BF360C">4.8×</text>
<rect x="0" y="398" width="820" height="26" fill="#f5f5f5"/>
<text x="212" y="415" text-anchor="end" font-size="11" fill="#424242">long_fields_20k</text>
<rect x="308" y="406" width="10" height="10" fill="#1565C0"/>
<text x="277" y="415" font-size="10" fill="#1565C0">1.9×</text>
<rect x="402" y="406" width="10" height="10" fill="#BF360C"/>
<text x="415" y="415" font-size="10" fill="#BF360C">3.5×</text>
<rect x="0" y="424" width="820" height="26" fill="#ffffff"/>
<text x="212" y="441" text-anchor="end" font-size="11" fill="#424242">heavy_quoting_20k</text>
<rect x="289" y="432" width="10" height="10" fill="#1565C0"/>
<text x="258" y="441" font-size="10" fill="#1565C0">1.7×</text>
<rect x="364" y="432" width="10" height="10" fill="#BF360C"/>
<text x="377" y="441" font-size="10" fill="#BF360C">2.7×</text>
<rect x="0" y="450" width="820" height="26" fill="#f5f5f5"/>
<text x="212" y="467" text-anchor="end" font-size="11" fill="#424242">worldcities</text>
<rect x="275" y="458" width="10" height="10" fill="#1565C0"/>
<text x="244" y="467" font-size="10" fill="#1565C0">1.5×</text>
<rect x="360" y="458" width="10" height="10" fill="#BF360C"/>
<text x="373" y="467" font-size="10" fill="#BF360C">2.7×</text>
<rect x="0" y="476" width="820" height="26" fill="#ffffff"/>
<text x="212" y="493" text-anchor="end" font-size="11" fill="#424242">embedded_separators_20k</text>
<rect x="280" y="484" width="10" height="10" fill="#1565C0"/>
<text x="249" y="493" font-size="10" fill="#1565C0">1.6×</text>
<rect x="357" y="484" width="10" height="10" fill="#BF360C"/>
<text x="370" y="493" font-size="10" fill="#BF360C">2.6×</text>
<rect x="0" y="502" width="820" height="26" fill="#f5f5f5"/>
<text x="212" y="519" text-anchor="end" font-size="11" fill="#424242">uscities</text>
<rect x="274" y="510" width="10" height="10" fill="#1565C0"/>
<text x="243" y="519" font-size="10" fill="#1565C0">1.5×</text>
<rect x="352" y="510" width="10" height="10" fill="#BF360C"/>
<text x="365" y="519" font-size="10" fill="#BF360C">2.5×</text>
<rect x="0" y="528" width="820" height="26" fill="#ffffff"/>
<text x="212" y="545" text-anchor="end" font-size="11" fill="#424242">uszips</text>
<rect x="274" y="536" width="10" height="10" fill="#1565C0"/>
<text x="243" y="545" font-size="10" fill="#1565C0">1.5×</text>
<rect x="348" y="536" width="10" height="10" fill="#BF360C"/>
<text x="361" y="545" font-size="10" fill="#BF360C">2.4×</text>
<rect x="0" y="554" width="820" height="26" fill="#f5f5f5"/>
<text x="212" y="571" text-anchor="end" font-size="11" fill="#424242">embedded_newlines_20k</text>
<rect x="322" y="562" width="10" height="10" fill="#1565C0"/>
<text x="291" y="571" font-size="10" fill="#1565C0">2.1×</text>
<rect x="336" y="562" width="10" height="10" fill="#BF360C"/>
<text x="349" y="574" font-size="10" fill="#BF360C">2.3×</text>
<rect x="223" y="589" width="10" height="10" fill="#1565C0"/>
<text x="240" y="598" font-size="11" fill="#1565C0">Ruby path (v1.15.2)</text>
<rect x="223" y="609" width="10" height="10" fill="#BF360C"/>
<text x="240" y="618" font-size="11" fill="#BF360C">Ruby path (v1.16.0)</text>
</svg>