<svg xmlns="http://www.w3.org/2000/svg" width="764" height="632"
     font-family="ui-monospace, 'Cascadia Code', 'Courier New', monospace" font-size="12">
<rect width="764" height="632" fill="#ffffff"/>
<text x="382" y="20" text-anchor="middle" font-size="14" font-weight="bold" fill="#212121">SmarterCSV 1.17.0 vs Ruby CSV.read 3.3.5</text>
<text x="382" y="36" text-anchor="middle" font-size="10" fill="#9e9e9e">Speedup = CSV.read time ÷ SmarterCSV time  (higher = SmarterCSV is faster) · Ruby 3.4.7 · best of 40</text>
<text x="490" y="620" text-anchor="middle" font-size="11" fill="#616161">Speedup (CSV.read ÷ SmarterCSV 1.17.0 C)</text>
<line x1="240" y1="62" x2="240" y2="594" stroke="#e0e0e0" stroke-width="1"/>
<text x="240" y="606" text-anchor="middle" font-size="11" fill="#757575">0×</text>
<line x1="240" y1="62" x2="240" y2="594" stroke="#e0e0e0" stroke-width="1"/>
<text x="240" y="606" text-anchor="middle" font-size="11" fill="#757575">1×</text>
<line x1="240" y1="62" x2="240" y2="594" stroke="#e0e0e0" stroke-width="1"/>
<text x="240" y="606" text-anchor="middle" font-size="11" fill="#757575">2×</text>
<line x1="240" y1="62" x2="240" y2="594" stroke="#e0e0e0" stroke-width="1"/>
<text x="240" y="606" text-anchor="middle" font-size="11" fill="#757575">3×</text>
<line x1="240" y1="62" x2="240" y2="594" stroke="#e0e0e0" stroke-width="1"/>
<text x="240" y="606" text-anchor="middle" font-size="11" fill="#757575">4×</text>
<line x1="240" y1="62" x2="240" y2="594" stroke="#e0e0e0" stroke-width="1"/>
<text x="240" y="606" text-anchor="middle" font-size="11" fill="#757575">5×</text>
<line x1="240" y1="62" x2="240" y2="594" stroke="#e0e0e0" stroke-width="1"/>
<text x="240" y="606" text-anchor="middle" font-size="11" fill="#757575">6×</text>
<line x1="240" y1="62" x2="240" y2="594" stroke="#e0e0e0" stroke-width="1"/>
<text x="240" y="606" text-anchor="middle" font-size="11" fill="#757575">7×</text>
<line x1="240" y1="62" x2="240" y2="594" stroke="#e0e0e0" stroke-width="1"/>
<text x="240" y="606" text-anchor="middle" font-size="11" fill="#757575">8×</text>
<line x1="740" y1="62" x2="740" y2="594" stroke="#e0e0e0" stroke-width="1"/>
<text x="740" y="606" text-anchor="middle" font-size="11" fill="#757575">9×</text>
<line x1="296" y1="62" x2="296" y2="594" stroke="#9e9e9e" stroke-width="1.5" stroke-dasharray="4,3"/>
<line x1="240" y1="594" x2="740" y2="594" stroke="#bdbdbd" stroke-width="1"/>
<line x1="240" y1="62" x2="240" y2="594" stroke="#bdbdbd" stroke-width="1"/>
<rect x="0" y="62" width="764" height="28" fill="#f5f5f5"/>
<text x="232" y="80" text-anchor="end" font-size="11" fill="#424242">PEOPLE_IMPORT_C.csv</text>
<rect x="240" y="67" width="437" height="18" fill="#1565C0" rx="2"/>
<text x="673" y="80" text-anchor="end" font-size="10" fill="#ffffff" font-weight="bold">7.87×</text>
<rect x="0" y="90" width="764" height="28" fill="#ffffff"/>
<text x="232" y="108" text-anchor="end" font-size="11" fill="#424242">uszips.csv</text>
<rect x="240" y="95" width="435" height="18" fill="#1565C0" rx="2"/>
<text x="671" y="108" text-anchor="end" font-size="10" fill="#ffffff" font-weight="bold">7.83×</text>
<rect x="0" y="118" width="764" height="28" fill="#f5f5f5"/>
<text x="232" y="136" text-anchor="end" font-size="11" fill="#424242">long_fields_40k.csv</text>
<rect x="240" y="123" width="380" height="18" fill="#1565C0" rx="2"/>
<text x="616" y="136" text-anchor="end" font-size="10" fill="#ffffff" font-weight="bold">6.83×</text>
<rect x="0" y="146" width="764" height="28" fill="#ffffff"/>
<text x="232" y="164" text-anchor="end" font-size="11" fill="#424242">worldcities.csv</text>
<rect x="240" y="151" width="378" height="18" fill="#1565C0" rx="2"/>
<text x="614" y="164" text-anchor="end" font-size="10" fill="#ffffff" font-weight="bold">6.80×</text>
<rect x="0" y="174" width="764" height="28" fill="#f5f5f5"/>
<text x="232" y="192" text-anchor="end" font-size="11" fill="#424242">uscities.csv</text>
<rect x="240" y="179" width="371" height="18" fill="#1565C0" rx="2"/>
<text x="607" y="192" text-anchor="end" font-size="10" fill="#ffffff" font-weight="bold">6.68×</text>
<rect x="0" y="202" width="764" height="28" fill="#ffffff"/>
<text x="232" y="220" text-anchor="end" font-size="11" fill="#424242">embedded_separators_60k.csv</text>
<rect x="240" y="207" width="307" height="18" fill="#1565C0" rx="2"/>
<text x="543" y="220" text-anchor="end" font-size="10" fill="#ffffff" font-weight="bold">5.53×</text>
<rect x="0" y="230" width="764" height="28" fill="#f5f5f5"/>
<text x="232" y="248" text-anchor="end" font-size="11" fill="#424242">utf8_multibyte_60k.csv</text>
<rect x="240" y="235" width="216" height="18" fill="#1565C0" rx="2"/>
<text x="452" y="248" text-anchor="end" font-size="10" fill="#ffffff" font-weight="bold">3.89×</text>
<rect x="0" y="258" width="764" height="28" fill="#ffffff"/>
<text x="232" y="276" text-anchor="end" font-size="11" fill="#424242">PEOPLE_IMPORT_NC.csv</text>
<rect x="240" y="263" width="212" height="18" fill="#1565C0" rx="2"/>
<text x="448" y="276" text-anchor="end" font-size="10" fill="#ffffff" font-weight="bold">3.81×</text>
<rect x="0" y="286" width="764" height="28" fill="#f5f5f5"/>
<text x="232" y="304" text-anchor="end" font-size="11" fill="#424242">heavy_quoting_60k.csv</text>
<rect x="240" y="291" width="195" height="18" fill="#1565C0" rx="2"/>
<text x="431" y="304" text-anchor="end" font-size="10" fill="#ffffff" font-weight="bold">3.51×</text>
<rect x="0" y="314" width="764" height="28" fill="#ffffff"/>
<text x="232" y="332" text-anchor="end" font-size="11" fill="#424242">many_empty_fields_60k.csv</text>
<rect x="240" y="319" width="194" height="18" fill="#1565C0" rx="2"/>
<text x="430" y="332" text-anchor="end" font-size="10" fill="#ffffff" font-weight="bold">3.49×</text>
<rect x="0" y="342" width="764" height="28" fill="#f5f5f5"/>
<text x="232" y="360" text-anchor="end" font-size="11" fill="#424242">sample_100k.csv</text>
<rect x="240" y="347" width="191" height="18" fill="#1565C0" rx="2"/>
<text x="427" y="360" text-anchor="end" font-size="10" fill="#ffffff" font-weight="bold">3.44×</text>
<rect x="0" y="370" width="764" height="28" fill="#ffffff"/>
<text x="232" y="388" text-anchor="end" font-size="11" fill="#424242">PEOPLE_IMPORT_NB.csv</text>
<rect x="240" y="375" width="175" height="18" fill="#1565C0" rx="2"/>
<text x="411" y="388" text-anchor="end" font-size="10" fill="#ffffff" font-weight="bold">3.14×</text>
<rect x="0" y="398" width="764" height="28" fill="#f5f5f5"/>
<text x="232" y="416" text-anchor="end" font-size="11" fill="#424242">whitespace_heavy_60k.csv</text>
<rect x="240" y="403" width="166" height="18" fill="#1565C0" rx="2"/>
<text x="402" y="416" text-anchor="end" font-size="10" fill="#ffffff" font-weight="bold">2.98×</text>
<rect x="0" y="426" width="764" height="28" fill="#ffffff"/>
<text x="232" y="444" text-anchor="end" font-size="11" fill="#424242">PEOPLE_IMPORT_B.csv</text>
<rect x="240" y="431" width="164" height="18" fill="#1565C0" rx="2"/>
<text x="400" y="444" text-anchor="end" font-size="10" fill="#ffffff" font-weight="bold">2.95×</text>
<rect x="0" y="454" width="764" height="28" fill="#f5f5f5"/>
<text x="232" y="472" text-anchor="end" font-size="11" fill="#424242">embedded_newlines_60k.csv</text>
<rect x="240" y="459" width="162" height="18" fill="#1565C0" rx="2"/>
<text x="398" y="472" text-anchor="end" font-size="10" fill="#ffffff" font-weight="bold">2.91×</text>
<rect x="0" y="482" width="764" height="28" fill="#ffffff"/>
<text x="232" y="500" text-anchor="end" font-size="11" fill="#424242">sensor_data_50krows_50cols.csv</text>
<rect x="240" y="487" width="141" height="18" fill="#1565C0" rx="2"/>
<text x="377" y="500" text-anchor="end" font-size="10" fill="#ffffff" font-weight="bold">2.54×</text>
<rect x="0" y="510" width="764" height="28" fill="#f5f5f5"/>
<text x="232" y="528" text-anchor="end" font-size="11" fill="#424242">wide_500_cols_20k.csv</text>
<rect x="240" y="515" width="94" height="18" fill="#1565C0" rx="2"/>
<text x="330" y="528" text-anchor="end" font-size="10" fill="#ffffff" font-weight="bold">1.69×</text>
<rect x="0" y="538" width="764" height="28" fill="#ffffff"/>
<text x="232" y="556" text-anchor="end" font-size="11" fill="#424242">tab_separated_60k.tsv</text>
<rect x="240" y="543" width="87" height="18" fill="#1565C0" rx="2"/>
<text x="323" y="556" text-anchor="end" font-size="10" fill="#ffffff" font-weight="bold">1.56×</text>
<rect x="0" y="566" width="764" height="28" fill="#f5f5f5"/>
<text x="232" y="584" text-anchor="end" font-size="11" fill="#424242">multi_char_separator_60k.csv</text>
<rect x="240" y="571" width="75" height="18" fill="#1565C0" rx="2"/>
<text x="311" y="584" text-anchor="end" font-size="10" fill="#ffffff" font-weight="bold">1.35×</text>
</svg>