<svg xmlns="http://www.w3.org/2000/svg" width="820" height="668"
     font-family="ui-monospace, 'Cascadia Code', 'Courier New', monospace" font-size="12">
<rect width="820" height="668" fill="#ffffff"/>
<text x="410" y="18" text-anchor="middle" font-size="13" font-weight="bold" fill="#212121">SmarterCSV improvements 1.15.2, 1.16.4, 1.17.0 vs 1.14.4 — Ruby (not accelerated)</text>
<text x="410" y="32" text-anchor="middle" font-size="10" fill="#9e9e9e">Speedup ratio = baseline version time ÷ newer version time  (higher = newer version is faster)</text>
<text x="410" y="48" text-anchor="middle" font-size="11" fill="#616161">Ruby 3.4.7  [log scale, best of 40]</text>
<line x1="220" y1="68" x2="220" y2="580" stroke="#e0e0e0" stroke-width="1"/>
<text x="220" y="64" text-anchor="middle" font-size="11" fill="#757575">1×</text>
<line x1="323" y1="68" x2="323" y2="580" stroke="#e0e0e0" stroke-width="1"/>
<text x="323" y="64" text-anchor="middle" font-size="11" fill="#757575">2×</text>
<line x1="459" y1="68" x2="459" y2="580" stroke="#e0e0e0" stroke-width="1"/>
<text x="459" y="64" text-anchor="middle" font-size="11" fill="#757575">5×</text>
<line x1="561" y1="68" x2="561" y2="580" stroke="#e0e0e0" stroke-width="1"/>
<text x="561" y="64" text-anchor="middle" font-size="11" fill="#757575">10×</text>
<line x1="664" y1="68" x2="664" y2="580" stroke="#e0e0e0" stroke-width="1"/>
<text x="664" y="64" text-anchor="middle" font-size="11" fill="#757575">20×</text>
<line x1="800" y1="68" x2="800" y2="580" stroke="#e0e0e0" stroke-width="1"/>
<text x="800" y="64" text-anchor="middle" font-size="11" fill="#757575">50×</text>
<line x1="220" y1="68" x2="220" y2="580" stroke="#9e9e9e" stroke-width="1.5"/>
<line x1="220" y1="68" x2="800" y2="68" stroke="#bdbdbd" stroke-width="1"/>
<rect x="0" y="86" width="820" height="26" fill="#f5f5f5"/>
<text x="212" y="103" text-anchor="end" font-size="11" fill="#424242">PEOPLE_IMPORT_C</text>
<rect x="559" y="94" width="10" height="10" fill="#1565C0"/>
<text x="535" y="103" font-size="10" fill="#1565C0">10×</text>
<rect x="655" y="94" width="10" height="10" fill="#BF360C"/>
<text x="668" y="103" font-size="10" fill="#BF360C">19×</text>
<rect x="656" y="94" width="10" height="10" fill="#2E7D32"/>
<text x="669" y="106" font-size="10" fill="#2E7D32">20×</text>
<rect x="0" y="112" width="820" height="26" fill="#ffffff"/>
<text x="212" y="129" text-anchor="end" font-size="11" fill="#424242">PEOPLE_IMPORT_NC</text>
<rect x="514" y="120" width="10" height="10" fill="#1565C0"/>
<text x="483" y="129" font-size="10" fill="#1565C0">7.5×</text>
<rect x="567" y="120" width="10" height="10" fill="#2E7D32"/>
<text x="580" y="129" font-size="10" fill="#2E7D32">11×</text>
<rect x="568" y="120" width="10" height="10" fill="#BF360C"/>
<text x="581" y="132" font-size="10" fill="#BF360C">11×</text>
<rect x="0" y="138" width="820" height="26" fill="#f5f5f5"/>
<text x="212" y="155" text-anchor="end" font-size="11" fill="#424242">whitespace_heavy_20k</text>
<rect x="547" y="146" width="10" height="10" fill="#BF360C"/>
<text x="516" y="155" font-size="10" fill="#BF360C">9.4×</text>
<rect x="551" y="146" width="10" height="10" fill="#1565C0"/>
<text x="564" y="158" font-size="10" fill="#1565C0">9.6×</text>
<rect x="551" y="146" width="10" height="10" fill="#2E7D32"/>
<text x="564" y="169" font-size="10" fill="#2E7D32">9.6×</text>
<rect x="0" y="164" width="820" height="26" fill="#ffffff"/>
<text x="212" y="181" text-anchor="end" font-size="11" fill="#424242">PEOPLE_IMPORT_NB</text>
<rect x="533" y="172" width="10" height="10" fill="#1565C0"/>
<text x="502" y="181" font-size="10" fill="#1565C0">8.5×</text>
<rect x="547" y="172" width="10" height="10" fill="#2E7D32"/>
<text x="560" y="184" font-size="10" fill="#2E7D32">9.4×</text>
<rect x="548" y="172" width="10" height="10" fill="#BF360C"/>
<text x="561" y="195" font-size="10" fill="#BF360C">9.5×</text>
<rect x="0" y="190" width="820" height="26" fill="#f5f5f5"/>
<text x="212" y="207" text-anchor="end" font-size="11" fill="#424242">PEOPLE_IMPORT_B</text>
<rect x="525" y="198" width="10" height="10" fill="#1565C0"/>
<text x="494" y="207" font-size="10" fill="#1565C0">8.1×</text>
<rect x="535" y="198" width="10" height="10" fill="#BF360C"/>
<text x="548" y="210" font-size="10" fill="#BF360C">8.7×</text>
<rect x="544" y="198" width="10" height="10" fill="#2E7D32"/>
<text x="557" y="221" font-size="10" fill="#2E7D32">9.2×</text>
<rect x="0" y="216" width="820" height="26" fill="#ffffff"/>
<text x="212" y="233" text-anchor="end" font-size="11" fill="#424242">tab_separated_20k</text>
<rect x="522" y="224" width="10" height="10" fill="#1565C0"/>
<text x="491" y="233" font-size="10" fill="#1565C0">7.9×</text>
<rect x="526" y="224" width="10" height="10" fill="#BF360C"/>
<text x="539" y="236" font-size="10" fill="#BF360C">8.2×</text>
<rect x="528" y="224" width="10" height="10" fill="#2E7D32"/>
<text x="541" y="247" font-size="10" fill="#2E7D32">8.2×</text>
<rect x="0" y="242" width="820" height="26" fill="#f5f5f5"/>
<text x="212" y="259" text-anchor="end" font-size="11" fill="#424242">multi_char_separator_20k</text>
<rect x="474" y="250" width="10" height="10" fill="#1565C0"/>
<text x="443" y="259" font-size="10" fill="#1565C0">5.8×</text>
<rect x="515" y="250" width="10" height="10" fill="#2E7D32"/>
<text x="528" y="262" font-size="10" fill="#2E7D32">7.5×</text>
<rect x="517" y="250" width="10" height="10" fill="#BF360C"/>
<text x="530" y="273" font-size="10" fill="#BF360C">7.6×</text>
<rect x="0" y="268" width="820" height="26" fill="#ffffff"/>
<text x="212" y="285" text-anchor="end" font-size="11" fill="#424242">wide_500_cols_20k</text>
<rect x="485" y="276" width="10" height="10" fill="#1565C0"/>
<text x="454" y="285" font-size="10" fill="#1565C0">6.2×</text>
<rect x="490" y="276" width="10" height="10" fill="#BF360C"/>
<text x="503" y="288" font-size="10" fill="#BF360C">6.4×</text>
<rect x="491" y="276" width="10" height="10" fill="#2E7D32"/>
<text x="504" y="299" font-size="10" fill="#2E7D32">6.4×</text>
<rect x="0" y="294" width="820" height="26" fill="#f5f5f5"/>
<text x="212" y="311" text-anchor="end" font-size="11" fill="#424242">utf8_multibyte_20k</text>
<rect x="475" y="302" width="10" height="10" fill="#1565C0"/>
<text x="444" y="311" font-size="10" fill="#1565C0">5.8×</text>
<rect x="482" y="302" width="10" height="10" fill="#BF360C"/>
<text x="495" y="314" font-size="10" fill="#BF360C">6.1×</text>
<rect x="483" y="302" width="10" height="10" fill="#2E7D32"/>
<text x="496" y="325" font-size="10" fill="#2E7D32">6.1×</text>
<rect x="0" y="320" width="820" height="26" fill="#ffffff"/>
<text x="212" y="337" text-anchor="end" font-size="11" fill="#424242">many_empty_fields_20k</text>
<rect x="398" y="328" width="10" height="10" fill="#1565C0"/>
<text x="367" y="337" font-size="10" fill="#1565C0">3.4×</text>
<rect x="458" y="328" width="10" height="10" fill="#BF360C"/>
<text x="471" y="337" font-size="10" fill="#BF360C">5.1×</text>
<rect x="459" y="328" width="10" height="10" fill="#2E7D32"/>
<text x="472" y="340" font-size="10" fill="#2E7D32">5.2×</text>
<rect x="0" y="346" width="820" height="26" fill="#f5f5f5"/>
<text x="212" y="363" text-anchor="end" font-size="11" fill="#424242">sensor_data_50krows_50cols</text>
<rect x="450" y="354" width="10" height="10" fill="#BF360C"/>
<text x="419" y="363" font-size="10" fill="#BF360C">4.9×</text>
<rect x="451" y="354" width="10" height="10" fill="#1565C0"/>
<text x="464" y="366" font-size="10" fill="#1565C0">4.9×</text>
<rect x="451" y="354" width="10" height="10" fill="#2E7D32"/>
<text x="464" y="377" font-size="10" fill="#2E7D32">4.9×</text>
<rect x="0" y="372" width="820" height="26" fill="#ffffff"/>
<text x="212" y="389" text-anchor="end" font-size="11" fill="#424242">sample_10M</text>
<rect x="435" y="380" width="10" height="10" fill="#1565C0"/>
<text x="404" y="389" font-size="10" fill="#1565C0">4.4×</text>
<rect x="445" y="380" width="10" height="10" fill="#BF360C"/>
<text x="458" y="392" font-size="10" fill="#BF360C">4.7×</text>
<rect x="447" y="380" width="10" height="10" fill="#2E7D32"/>
<text x="460" y="403" font-size="10" fill="#2E7D32">4.8×</text>
<rect x="0" y="398" width="820" height="26" fill="#f5f5f5"/>
<text x="212" y="415" text-anchor="end" font-size="11" fill="#424242">long_fields_20k</text>
<rect x="307" y="406" width="10" height="10" fill="#1565C0"/>
<text x="276" y="415" font-size="10" fill="#1565C0">1.9×</text>
<rect x="399" y="406" width="10" height="10" fill="#BF360C"/>
<text x="412" y="415" font-size="10" fill="#BF360C">3.5×</text>
<rect x="399" y="406" width="10" height="10" fill="#2E7D32"/>
<text x="412" y="418" font-size="10" fill="#2E7D32">3.5×</text>
<rect x="0" y="424" width="820" height="26" fill="#ffffff"/>
<text x="212" y="441" text-anchor="end" font-size="11" fill="#424242">heavy_quoting_20k</text>
<rect x="291" y="432" width="10" height="10" fill="#1565C0"/>
<text x="260" y="441" font-size="10" fill="#1565C0">1.7×</text>
<rect x="364" y="432" width="10" height="10" fill="#BF360C"/>
<text x="377" y="441" font-size="10" fill="#BF360C">2.7×</text>
<rect x="364" y="432" width="10" height="10" fill="#2E7D32"/>
<text x="377" y="444" font-size="10" fill="#2E7D32">2.7×</text>
<rect x="0" y="450" width="820" height="26" fill="#f5f5f5"/>
<text x="212" y="467" text-anchor="end" font-size="11" fill="#424242">worldcities</text>
<rect x="275" y="458" width="10" height="10" fill="#1565C0"/>
<text x="244" y="467" font-size="10" fill="#1565C0">1.5×</text>
<rect x="357" y="458" width="10" height="10" fill="#BF360C"/>
<text x="370" y="467" font-size="10" fill="#BF360C">2.6×</text>
<rect x="357" y="458" width="10" height="10" fill="#2E7D32"/>
<text x="370" y="470" font-size="10" fill="#2E7D32">2.6×</text>
<rect x="0" y="476" width="820" height="26" fill="#ffffff"/>
<text x="212" y="493" text-anchor="end" font-size="11" fill="#424242">embedded_separators_20k</text>
<rect x="281" y="484" width="10" height="10" fill="#1565C0"/>
<text x="250" y="493" font-size="10" fill="#1565C0">1.6×</text>
<rect x="355" y="484" width="10" height="10" fill="#BF360C"/>
<text x="368" y="493" font-size="10" fill="#BF360C">2.6×</text>
<rect x="355" y="484" width="10" height="10" fill="#2E7D32"/>
<text x="368" y="496" font-size="10" fill="#2E7D32">2.6×</text>
<rect x="0" y="502" width="820" height="26" fill="#f5f5f5"/>
<text x="212" y="519" text-anchor="end" font-size="11" fill="#424242">uscities</text>
<rect x="272" y="510" width="10" height="10" fill="#1565C0"/>
<text x="241" y="519" font-size="10" fill="#1565C0">1.5×</text>
<rect x="347" y="510" width="10" height="10" fill="#2E7D32"/>
<text x="360" y="519" font-size="10" fill="#2E7D32">2.4×</text>
<rect x="351" y="510" width="10" height="10" fill="#BF360C"/>
<text x="364" y="522" font-size="10" fill="#BF360C">2.5×</text>
<rect x="0" y="528" width="820" height="26" fill="#ffffff"/>
<text x="212" y="545" text-anchor="end" font-size="11" fill="#424242">uszips</text>
<rect x="272" y="536" width="10" height="10" fill="#1565C0"/>
<text x="241" y="545" font-size="10" fill="#1565C0">1.5×</text>
<rect x="343" y="536" width="10" height="10" fill="#2E7D32"/>
<text x="356" y="545" font-size="10" fill="#2E7D32">2.4×</text>
<rect x="344" y="536" width="10" height="10" fill="#BF360C"/>
<text x="357" y="548" font-size="10" fill="#BF360C">2.4×</text>
<rect x="0" y="554" width="820" height="26" fill="#f5f5f5"/>
<text x="212" y="571" text-anchor="end" font-size="11" fill="#424242">embedded_newlines_20k</text>
<rect x="323" y="562" width="10" height="10" fill="#1565C0"/>
<text x="292" y="571" font-size="10" fill="#1565C0">2.1×</text>
<rect x="333" y="562" width="10" height="10" fill="#2E7D32"/>
<text x="346" y="574" font-size="10" fill="#2E7D32">2.2×</text>
<rect x="334" y="562" width="10" height="10" fill="#BF360C"/>
<text x="347" y="585" font-size="10" fill="#BF360C">2.2×</text>
<rect x="223" y="589" width="10" height="10" fill="#1565C0"/>
<text x="240" y="598" font-size="11" fill="#1565C0">Ruby path (v1.15.2)</text>
<rect x="223" y="609" width="10" height="10" fill="#BF360C"/>
<text x="240" y="618" font-size="11" fill="#BF360C">Ruby path (v1.16.4)</text>
<rect x="223" y="629" width="10" height="10" fill="#2E7D32"/>
<text x="240" y="638" font-size="11" fill="#2E7D32">Ruby path (v1.17.0)</text>
</svg>