<svg xmlns="http://www.w3.org/2000/svg" width="820" height="668"
     font-family="ui-monospace, 'Cascadia Code', 'Courier New', monospace" font-size="12">
<rect width="820" height="668" fill="#ffffff"/>
<text x="410" y="18" text-anchor="middle" font-size="13" font-weight="bold" fill="#212121">SmarterCSV improvements 1.15.2, 1.16.4, 1.17.0 vs 1.14.4 — C accelerated</text>
<text x="410" y="32" text-anchor="middle" font-size="10" fill="#9e9e9e">Speedup ratio = baseline version time ÷ newer version time  (higher = newer version is faster)</text>
<text x="410" y="48" text-anchor="middle" font-size="11" fill="#616161">Ruby 3.4.7  [log scale, best of 40]</text>
<line x1="220" y1="68" x2="220" y2="580" stroke="#e0e0e0" stroke-width="1"/>
<text x="220" y="64" text-anchor="middle" font-size="11" fill="#757575">1×</text>
<line x1="307" y1="68" x2="307" y2="580" stroke="#e0e0e0" stroke-width="1"/>
<text x="307" y="64" text-anchor="middle" font-size="11" fill="#757575">2×</text>
<line x1="423" y1="68" x2="423" y2="580" stroke="#e0e0e0" stroke-width="1"/>
<text x="423" y="64" text-anchor="middle" font-size="11" fill="#757575">5×</text>
<line x1="510" y1="68" x2="510" y2="580" stroke="#e0e0e0" stroke-width="1"/>
<text x="510" y="64" text-anchor="middle" font-size="11" fill="#757575">10×</text>
<line x1="597" y1="68" x2="597" y2="580" stroke="#e0e0e0" stroke-width="1"/>
<text x="597" y="64" text-anchor="middle" font-size="11" fill="#757575">20×</text>
<line x1="713" y1="68" x2="713" y2="580" stroke="#e0e0e0" stroke-width="1"/>
<text x="713" y="64" text-anchor="middle" font-size="11" fill="#757575">50×</text>
<line x1="800" y1="68" x2="800" y2="580" stroke="#e0e0e0" stroke-width="1"/>
<text x="800" y="64" text-anchor="middle" font-size="11" fill="#757575">100×</text>
<line x1="220" y1="68" x2="220" y2="580" stroke="#9e9e9e" stroke-width="1.5"/>
<line x1="220" y1="68" x2="800" y2="68" stroke="#bdbdbd" stroke-width="1"/>
<rect x="0" y="86" width="820" height="26" fill="#f5f5f5"/>
<text x="212" y="103" text-anchor="end" font-size="11" fill="#424242">long_fields_20k</text>
<circle cx="635" cy="99" r="5" fill="#1565C0"/>
<text x="606" y="103" font-size="10" fill="#1565C0">27×</text>
<circle cx="742" cy="99" r="5" fill="#BF360C"/>
<text x="750" y="103" font-size="10" fill="#BF360C">63×</text>
<circle cx="763" cy="99" r="5" fill="#2E7D32"/>
<text x="771" y="106" font-size="10" fill="#2E7D32">75×</text>
<rect x="0" y="112" width="820" height="26" fill="#ffffff"/>
<text x="212" y="129" text-anchor="end" font-size="11" fill="#424242">PEOPLE_IMPORT_C</text>
<circle cx="682" cy="125" r="5" fill="#1565C0"/>
<text x="653" y="129" font-size="10" fill="#1565C0">39×</text>
<circle cx="701" cy="125" r="5" fill="#BF360C"/>
<text x="709" y="132" font-size="10" fill="#BF360C">46×</text>
<circle cx="702" cy="125" r="5" fill="#2E7D32"/>
<text x="710" y="143" font-size="10" fill="#2E7D32">46×</text>
<rect x="0" y="138" width="820" height="26" fill="#f5f5f5"/>
<text x="212" y="155" text-anchor="end" font-size="11" fill="#424242">PEOPLE_IMPORT_NB</text>
<circle cx="567" cy="151" r="5" fill="#1565C0"/>
<text x="538" y="155" font-size="10" fill="#1565C0">16×</text>
<circle cx="610" cy="151" r="5" fill="#2E7D32"/>
<text x="618" y="158" font-size="10" fill="#2E7D32">22×</text>
<circle cx="612" cy="151" r="5" fill="#BF360C"/>
<text x="620" y="169" font-size="10" fill="#BF360C">23×</text>
<rect x="0" y="164" width="820" height="26" fill="#ffffff"/>
<text x="212" y="181" text-anchor="end" font-size="11" fill="#424242">whitespace_heavy_20k</text>
<circle cx="561" cy="177" r="5" fill="#1565C0"/>
<text x="532" y="181" font-size="10" fill="#1565C0">15×</text>
<circle cx="586" cy="177" r="5" fill="#2E7D32"/>
<text x="594" y="184" font-size="10" fill="#2E7D32">18×</text>
<circle cx="603" cy="177" r="5" fill="#BF360C"/>
<text x="611" y="195" font-size="10" fill="#BF360C">21×</text>
<rect x="0" y="190" width="820" height="26" fill="#f5f5f5"/>
<text x="212" y="207" text-anchor="end" font-size="11" fill="#424242">PEOPLE_IMPORT_NC</text>
<circle cx="578" cy="203" r="5" fill="#1565C0"/>
<text x="549" y="207" font-size="10" fill="#1565C0">17×</text>
<circle cx="601" cy="203" r="5" fill="#BF360C"/>
<text x="609" y="210" font-size="10" fill="#BF360C">21×</text>
<circle cx="602" cy="203" r="5" fill="#2E7D32"/>
<text x="610" y="221" font-size="10" fill="#2E7D32">21×</text>
<rect x="0" y="216" width="820" height="26" fill="#ffffff"/>
<text x="212" y="233" text-anchor="end" font-size="11" fill="#424242">multi_char_separator_20k</text>
<circle cx="566" cy="229" r="5" fill="#1565C0"/>
<text x="537" y="233" font-size="10" fill="#1565C0">16×</text>
<circle cx="583" cy="229" r="5" fill="#2E7D32"/>
<text x="591" y="236" font-size="10" fill="#2E7D32">18×</text>
<circle cx="594" cy="229" r="5" fill="#BF360C"/>
<text x="602" y="247" font-size="10" fill="#BF360C">20×</text>
<rect x="0" y="242" width="820" height="26" fill="#f5f5f5"/>
<text x="212" y="259" text-anchor="end" font-size="11" fill="#424242">PEOPLE_IMPORT_B</text>
<circle cx="565" cy="255" r="5" fill="#1565C0"/>
<text x="536" y="259" font-size="10" fill="#1565C0">15×</text>
<circle cx="588" cy="255" r="5" fill="#2E7D32"/>
<text x="596" y="262" font-size="10" fill="#2E7D32">19×</text>
<circle cx="589" cy="255" r="5" fill="#BF360C"/>
<text x="597" y="273" font-size="10" fill="#BF360C">19×</text>
<rect x="0" y="268" width="820" height="26" fill="#ffffff"/>
<text x="212" y="285" text-anchor="end" font-size="11" fill="#424242">tab_separated_20k</text>
<circle cx="546" cy="281" r="5" fill="#1565C0"/>
<text x="517" y="285" font-size="10" fill="#1565C0">13×</text>
<circle cx="581" cy="281" r="5" fill="#BF360C"/>
<text x="589" y="288" font-size="10" fill="#BF360C">18×</text>
<circle cx="581" cy="281" r="5" fill="#2E7D32"/>
<text x="589" y="299" font-size="10" fill="#2E7D32">18×</text>
<rect x="0" y="294" width="820" height="26" fill="#f5f5f5"/>
<text x="212" y="311" text-anchor="end" font-size="11" fill="#424242">many_empty_fields_20k</text>
<circle cx="537" cy="307" r="5" fill="#1565C0"/>
<text x="508" y="311" font-size="10" fill="#1565C0">12×</text>
<circle cx="559" cy="307" r="5" fill="#2E7D32"/>
<text x="567" y="314" font-size="10" fill="#2E7D32">15×</text>
<circle cx="570" cy="307" r="5" fill="#BF360C"/>
<text x="578" y="325" font-size="10" fill="#BF360C">16×</text>
<rect x="0" y="320" width="820" height="26" fill="#ffffff"/>
<text x="212" y="337" text-anchor="end" font-size="11" fill="#424242">sensor_data_50krows_50cols</text>
<circle cx="555" cy="333" r="5" fill="#1565C0"/>
<text x="526" y="337" font-size="10" fill="#1565C0">14×</text>
<circle cx="562" cy="333" r="5" fill="#BF360C"/>
<text x="570" y="340" font-size="10" fill="#BF360C">15×</text>
<circle cx="563" cy="333" r="5" fill="#2E7D32"/>
<text x="571" y="351" font-size="10" fill="#2E7D32">15×</text>
<rect x="0" y="346" width="820" height="26" fill="#f5f5f5"/>
<text x="212" y="363" text-anchor="end" font-size="11" fill="#424242">utf8_multibyte_20k</text>
<circle cx="518" cy="359" r="5" fill="#1565C0"/>
<text x="489" y="363" font-size="10" fill="#1565C0">11×</text>
<circle cx="559" cy="359" r="5" fill="#BF360C"/>
<text x="567" y="366" font-size="10" fill="#BF360C">15×</text>
<circle cx="561" cy="359" r="5" fill="#2E7D32"/>
<text x="569" y="377" font-size="10" fill="#2E7D32">15×</text>
<rect x="0" y="372" width="820" height="26" fill="#ffffff"/>
<text x="212" y="389" text-anchor="end" font-size="11" fill="#424242">heavy_quoting_20k</text>
<circle cx="499" cy="385" r="5" fill="#1565C0"/>
<text x="463" y="389" font-size="10" fill="#1565C0">9.2×</text>
<circle cx="553" cy="385" r="5" fill="#BF360C"/>
<text x="561" y="389" font-size="10" fill="#BF360C">14×</text>
<circle cx="555" cy="385" r="5" fill="#2E7D32"/>
<text x="563" y="392" font-size="10" fill="#2E7D32">14×</text>
<rect x="0" y="398" width="820" height="26" fill="#f5f5f5"/>
<text x="212" y="415" text-anchor="end" font-size="11" fill="#424242">uszips</text>
<circle cx="523" cy="411" r="5" fill="#1565C0"/>
<text x="494" y="415" font-size="10" fill="#1565C0">11×</text>
<circle cx="553" cy="411" r="5" fill="#BF360C"/>
<text x="561" y="418" font-size="10" fill="#BF360C">14×</text>
<circle cx="554" cy="411" r="5" fill="#2E7D32"/>
<text x="562" y="429" font-size="10" fill="#2E7D32">14×</text>
<rect x="0" y="424" width="820" height="26" fill="#ffffff"/>
<text x="212" y="441" text-anchor="end" font-size="11" fill="#424242">wide_500_cols_20k</text>
<circle cx="548" cy="437" r="5" fill="#1565C0"/>
<text x="519" y="441" font-size="10" fill="#1565C0">14×</text>
<circle cx="548" cy="437" r="5" fill="#BF360C"/>
<text x="556" y="444" font-size="10" fill="#BF360C">14×</text>
<circle cx="549" cy="437" r="5" fill="#2E7D32"/>
<text x="557" y="455" font-size="10" fill="#2E7D32">14×</text>
<rect x="0" y="450" width="820" height="26" fill="#f5f5f5"/>
<text x="212" y="467" text-anchor="end" font-size="11" fill="#424242">worldcities</text>
<circle cx="495" cy="463" r="5" fill="#1565C0"/>
<text x="459" y="467" font-size="10" fill="#1565C0">8.9×</text>
<circle cx="534" cy="463" r="5" fill="#BF360C"/>
<text x="542" y="470" font-size="10" fill="#BF360C">12×</text>
<circle cx="548" cy="463" r="5" fill="#2E7D32"/>
<text x="556" y="481" font-size="10" fill="#2E7D32">13×</text>
<rect x="0" y="476" width="820" height="26" fill="#ffffff"/>
<text x="212" y="493" text-anchor="end" font-size="11" fill="#424242">embedded_separators_20k</text>
<circle cx="488" cy="489" r="5" fill="#1565C0"/>
<text x="452" y="493" font-size="10" fill="#1565C0">8.4×</text>
<circle cx="542" cy="489" r="5" fill="#BF360C"/>
<text x="550" y="493" font-size="10" fill="#BF360C">13×</text>
<circle cx="542" cy="489" r="5" fill="#2E7D32"/>
<text x="550" y="496" font-size="10" fill="#2E7D32">13×</text>
<rect x="0" y="502" width="820" height="26" fill="#f5f5f5"/>
<text x="212" y="519" text-anchor="end" font-size="11" fill="#424242">uscities</text>
<circle cx="499" cy="515" r="5" fill="#1565C0"/>
<text x="463" y="519" font-size="10" fill="#1565C0">9.2×</text>
<circle cx="531" cy="515" r="5" fill="#BF360C"/>
<text x="539" y="522" font-size="10" fill="#BF360C">12×</text>
<circle cx="539" cy="515" r="5" fill="#2E7D32"/>
<text x="547" y="533" font-size="10" fill="#2E7D32">13×</text>
<rect x="0" y="528" width="820" height="26" fill="#ffffff"/>
<text x="212" y="545" text-anchor="end" font-size="11" fill="#424242">sample_10M</text>
<circle cx="470" cy="541" r="5" fill="#1565C0"/>
<text x="434" y="545" font-size="10" fill="#1565C0">7.3×</text>
<circle cx="502" cy="541" r="5" fill="#BF360C"/>
<text x="510" y="548" font-size="10" fill="#BF360C">9.4×</text>
<circle cx="511" cy="541" r="5" fill="#2E7D32"/>
<text x="519" y="559" font-size="10" fill="#2E7D32">10×</text>
<rect x="0" y="554" width="820" height="26" fill="#f5f5f5"/>
<text x="212" y="571" text-anchor="end" font-size="11" fill="#424242">embedded_newlines_20k</text>
<circle cx="489" cy="567" r="5" fill="#1565C0"/>
<text x="453" y="571" font-size="10" fill="#1565C0">8.4×</text>
<circle cx="497" cy="567" r="5" fill="#BF360C"/>
<text x="505" y="574" font-size="10" fill="#BF360C">9.0×</text>
<circle cx="507" cy="567" r="5" fill="#2E7D32"/>
<text x="515" y="585" font-size="10" fill="#2E7D32">9.8×</text>
<circle cx="228" cy="594" r="5" fill="#1565C0"/>
<text x="240" y="598" font-size="11" fill="#1565C0">C accelerated (v1.15.2)</text>
<circle cx="228" cy="614" r="5" fill="#BF360C"/>
<text x="240" y="618" font-size="11" fill="#BF360C">C accelerated (v1.16.4)</text>
<circle cx="228" cy="634" r="5" fill="#2E7D32"/>
<text x="240" y="638" font-size="11" fill="#2E7D32">C accelerated (v1.17.0)</text>
</svg>