<svg xmlns="http://www.w3.org/2000/svg" width="764" height="632"
     font-family="ui-monospace, 'Cascadia Code', 'Courier New', monospace" font-size="12">
<rect width="764" height="632" fill="#ffffff"/>
<text x="382" y="20" text-anchor="middle" font-size="14" font-weight="bold" fill="#212121">SmarterCSV 1.17.0 vs Ruby CSV.read 3.3.5</text>
<text x="382" y="36" text-anchor="middle" font-size="10" fill="#9e9e9e">Speedup = CSV.read time ÷ SmarterCSV time  (higher = SmarterCSV is faster) · Ruby 3.4.7 · best of 40</text>
<text x="490" y="620" text-anchor="middle" font-size="11" fill="#616161">Speedup (CSV.read ÷ SmarterCSV 1.17.0 C)</text>
<line x1="240" y1="62" x2="240" y2="594" stroke="#e0e0e0" stroke-width="1"/>
<text x="240" y="606" text-anchor="middle" font-size="11" fill="#757575">0×</text>
<line x1="240" y1="62" x2="240" y2="594" stroke="#e0e0e0" stroke-width="1"/>
<text x="240" y="606" text-anchor="middle" font-size="11" fill="#757575">1×</text>
<line x1="240" y1="62" x2="240" y2="594" stroke="#e0e0e0" stroke-width="1"/>
<text x="240" y="606" text-anchor="middle" font-size="11" fill="#757575">2×</text>
<line x1="240" y1="62" x2="240" y2="594" stroke="#e0e0e0" stroke-width="1"/>
<text x="240" y="606" text-anchor="middle" font-size="11" fill="#757575">3×</text>
<line x1="240" y1="62" x2="240" y2="594" stroke="#e0e0e0" stroke-width="1"/>
<text x="240" y="606" text-anchor="middle" font-size="11" fill="#757575">4×</text>
<line x1="240" y1="62" x2="240" y2="594" stroke="#e0e0e0" stroke-width="1"/>
<text x="240" y="606" text-anchor="middle" font-size="11" fill="#757575">5×</text>
<line x1="240" y1="62" x2="240" y2="594" stroke="#e0e0e0" stroke-width="1"/>
<text x="240" y="606" text-anchor="middle" font-size="11" fill="#757575">6×</text>
<line x1="240" y1="62" x2="240" y2="594" stroke="#e0e0e0" stroke-width="1"/>
<text x="240" y="606" text-anchor="middle" font-size="11" fill="#757575">7×</text>
<line x1="240" y1="62" x2="240" y2="594" stroke="#e0e0e0" stroke-width="1"/>
<text x="240" y="606" text-anchor="middle" font-size="11" fill="#757575">8×</text>
<line x1="240" y1="62" x2="240" y2="594" stroke="#e0e0e0" stroke-width="1"/>
<text x="240" y="606" text-anchor="middle" font-size="11" fill="#757575">9×</text>
<line x1="740" y1="62" x2="740" y2="594" stroke="#e0e0e0" stroke-width="1"/>
<text x="740" y="606" text-anchor="middle" font-size="11" fill="#757575">10×</text>
<line x1="290" y1="62" x2="290" y2="594" stroke="#9e9e9e" stroke-width="1.5" stroke-dasharray="4,3"/>
<line x1="240" y1="594" x2="740" y2="594" stroke="#bdbdbd" stroke-width="1"/>
<line x1="240" y1="62" x2="240" y2="594" stroke="#bdbdbd" stroke-width="1"/>
<rect x="0" y="62" width="764" height="28" fill="#f5f5f5"/>
<text x="232" y="80" text-anchor="end" font-size="11" fill="#424242">uszips.csv</text>
<rect x="240" y="67" width="413" height="18" fill="#1565C0" rx="2"/>
<text x="649" y="80" text-anchor="end" font-size="10" fill="#ffffff" font-weight="bold">8.26×</text>
<rect x="0" y="90" width="764" height="28" fill="#ffffff"/>
<text x="232" y="108" text-anchor="end" font-size="11" fill="#424242">PEOPLE_IMPORT_C.csv</text>
<rect x="240" y="95" width="379" height="18" fill="#1565C0" rx="2"/>
<text x="615" y="108" text-anchor="end" font-size="10" fill="#ffffff" font-weight="bold">7.57×</text>
<rect x="0" y="118" width="764" height="28" fill="#f5f5f5"/>
<text x="232" y="136" text-anchor="end" font-size="11" fill="#424242">worldcities.csv</text>
<rect x="240" y="123" width="348" height="18" fill="#1565C0" rx="2"/>
<text x="584" y="136" text-anchor="end" font-size="10" fill="#ffffff" font-weight="bold">6.95×</text>
<rect x="0" y="146" width="764" height="28" fill="#ffffff"/>
<text x="232" y="164" text-anchor="end" font-size="11" fill="#424242">uscities.csv</text>
<rect x="240" y="151" width="334" height="18" fill="#1565C0" rx="2"/>
<text x="570" y="164" text-anchor="end" font-size="10" fill="#ffffff" font-weight="bold">6.69×</text>
<rect x="0" y="174" width="764" height="28" fill="#f5f5f5"/>
<text x="232" y="192" text-anchor="end" font-size="11" fill="#424242">long_fields_20k.csv</text>
<rect x="240" y="179" width="307" height="18" fill="#1565C0" rx="2"/>
<text x="543" y="192" text-anchor="end" font-size="10" fill="#ffffff" font-weight="bold">6.15×</text>
<rect x="0" y="202" width="764" height="28" fill="#ffffff"/>
<text x="232" y="220" text-anchor="end" font-size="11" fill="#424242">embedded_separators_20k.csv</text>
<rect x="240" y="207" width="294" height="18" fill="#1565C0" rx="2"/>
<text x="530" y="220" text-anchor="end" font-size="10" fill="#ffffff" font-weight="bold">5.88×</text>
<rect x="0" y="230" width="764" height="28" fill="#f5f5f5"/>
<text x="232" y="248" text-anchor="end" font-size="11" fill="#424242">many_empty_fields_20k.csv</text>
<rect x="240" y="235" width="221" height="18" fill="#1565C0" rx="2"/>
<text x="457" y="248" text-anchor="end" font-size="10" fill="#ffffff" font-weight="bold">4.42×</text>
<rect x="0" y="258" width="764" height="28" fill="#ffffff"/>
<text x="232" y="276" text-anchor="end" font-size="11" fill="#424242">utf8_multibyte_20k.csv</text>
<rect x="240" y="263" width="217" height="18" fill="#1565C0" rx="2"/>
<text x="453" y="276" text-anchor="end" font-size="10" fill="#ffffff" font-weight="bold">4.34×</text>
<rect x="0" y="286" width="764" height="28" fill="#f5f5f5"/>
<text x="232" y="304" text-anchor="end" font-size="11" fill="#424242">PEOPLE_IMPORT_NB.csv</text>
<rect x="240" y="291" width="189" height="18" fill="#1565C0" rx="2"/>
<text x="425" y="304" text-anchor="end" font-size="10" fill="#ffffff" font-weight="bold">3.78×</text>
<rect x="0" y="314" width="764" height="28" fill="#ffffff"/>
<text x="232" y="332" text-anchor="end" font-size="11" fill="#424242">PEOPLE_IMPORT_NC.csv</text>
<rect x="240" y="319" width="187" height="18" fill="#1565C0" rx="2"/>
<text x="423" y="332" text-anchor="end" font-size="10" fill="#ffffff" font-weight="bold">3.75×</text>
<rect x="0" y="342" width="764" height="28" fill="#f5f5f5"/>
<text x="232" y="360" text-anchor="end" font-size="11" fill="#424242">whitespace_heavy_20k.csv</text>
<rect x="240" y="347" width="172" height="18" fill="#1565C0" rx="2"/>
<text x="408" y="360" text-anchor="end" font-size="10" fill="#ffffff" font-weight="bold">3.43×</text>
<rect x="0" y="370" width="764" height="28" fill="#ffffff"/>
<text x="232" y="388" text-anchor="end" font-size="11" fill="#424242">sample_10M.csv</text>
<rect x="240" y="375" width="169" height="18" fill="#1565C0" rx="2"/>
<text x="405" y="388" text-anchor="end" font-size="10" fill="#ffffff" font-weight="bold">3.38×</text>
<rect x="0" y="398" width="764" height="28" fill="#f5f5f5"/>
<text x="232" y="416" text-anchor="end" font-size="11" fill="#424242">heavy_quoting_20k.csv</text>
<rect x="240" y="403" width="157" height="18" fill="#1565C0" rx="2"/>
<text x="393" y="416" text-anchor="end" font-size="10" fill="#ffffff" font-weight="bold">3.13×</text>
<rect x="0" y="426" width="764" height="28" fill="#ffffff"/>
<text x="232" y="444" text-anchor="end" font-size="11" fill="#424242">tab_separated_20k.tsv</text>
<rect x="240" y="431" width="155" height="18" fill="#1565C0" rx="2"/>
<text x="391" y="444" text-anchor="end" font-size="10" fill="#ffffff" font-weight="bold">3.11×</text>
<rect x="0" y="454" width="764" height="28" fill="#f5f5f5"/>
<text x="232" y="472" text-anchor="end" font-size="11" fill="#424242">PEOPLE_IMPORT_B.csv</text>
<rect x="240" y="459" width="150" height="18" fill="#1565C0" rx="2"/>
<text x="386" y="472" text-anchor="end" font-size="10" fill="#ffffff" font-weight="bold">3.01×</text>
<rect x="0" y="482" width="764" height="28" fill="#ffffff"/>
<text x="232" y="500" text-anchor="end" font-size="11" fill="#424242">embedded_newlines_20k.csv</text>
<rect x="240" y="487" width="147" height="18" fill="#1565C0" rx="2"/>
<text x="383" y="500" text-anchor="end" font-size="10" fill="#ffffff" font-weight="bold">2.94×</text>
<rect x="0" y="510" width="764" height="28" fill="#f5f5f5"/>
<text x="232" y="528" text-anchor="end" font-size="11" fill="#424242">multi_char_separator_20k.csv</text>
<rect x="240" y="515" width="137" height="18" fill="#1565C0" rx="2"/>
<text x="373" y="528" text-anchor="end" font-size="10" fill="#ffffff" font-weight="bold">2.74×</text>
<rect x="0" y="538" width="764" height="28" fill="#ffffff"/>
<text x="232" y="556" text-anchor="end" font-size="11" fill="#424242">sensor_data_50krows_50cols.csv</text>
<rect x="240" y="543" width="110" height="18" fill="#1565C0" rx="2"/>
<text x="346" y="556" text-anchor="end" font-size="10" fill="#ffffff" font-weight="bold">2.20×</text>
<rect x="0" y="566" width="764" height="28" fill="#f5f5f5"/>
<text x="232" y="584" text-anchor="end" font-size="11" fill="#424242">wide_500_cols_20k.csv</text>
<rect x="240" y="571" width="91" height="18" fill="#1565C0" rx="2"/>
<text x="327" y="584" text-anchor="end" font-size="10" fill="#ffffff" font-weight="bold">1.82×</text>
</svg>